<svg xmlns="http://www.w3.org/2000/svg" width="100" height="112" fill="#000">
    <path
        d="M0 0 C3.17457862 0 4.61308244 0.70412187 7.125 2.625 C11.11535903 4.53343258 14.19240782 3.7354946 18.4765625 3.03125 C21 3 21 3 22.7109375 4.28125 C23.86132063 5.81509417 24.93647042 7.40470563 26 9 C26.804375 9.4125 27.60875 9.825 28.4375 10.25 C32.00067135 12.68338531 32.72739037 14.91425328 34 19 C34.52581759 22.79597082 34.35246761 26.05274331 33 29.6875 C29.30026718 33.96531608 25.18704767 36.80472789 19.5 37.3125 C18.675 37.209375 17.85 37.10625 17 37 C17.165 36.484375 17.33 35.96875 17.5 35.4375 C18.16025316 32.21876586 18.17875792 29.27722861 18 26 C17.34 25.01 16.68 24.02 16 23 C16 22.01 16 21.02 16 20 C16.66 20 17.32 20 18 20 C18.66 15.71 19.32 11.42 20 7 C15.67628107 9.02633069 15.67628107 9.02633069 12 12 C11.59952556 14.32275177 11.2602896 16.65739357 11 19 C10.38253906 19.09796875 9.76507813 19.1959375 9.12890625 19.296875 C4.49945975 20.11425064 0.48092502 21.10447218 -3.75 23.1875 C-7.52614636 25.00514771 -9.88120602 25.26732123 -14 24 C-12.81616212 29.4887029 -11.56498902 32.40628524 -7 36 C-4.06318889 37.50782584 -1.07467461 38.80094389 2 40 C1.46930939 43.82097239 0.50298434 46.06171403 -2 49 C-7.88993334 48.2400086 -13.629003 46.32744808 -17.9140625 42.12109375 C-21.78872404 36.98854446 -22.62383992 32.74731774 -22.40625 26.3828125 C-22 24 -22 24 -20 21 C-19.01 20.67 -18.02 20.34 -17 20 C-13.46302798 15.61415469 -12.89251279 10.4075775 -12 5 C-10.948125 5.103125 -9.89625 5.20625 -8.8125 5.3125 C-4.0414292 4.92142862 -3.23304184 3.31812189 0 0 Z M1 5 C0.67 5.99 0.34 6.98 0 8 C-0.66 8 -1.32 8 -2 8 C-2.67801034 10.90073181 -2.67801034 10.90073181 -3 14 C-1.04366025 16.41121859 -1.04366025 16.41121859 2.625 16.125 C3.73875 16.08375 4.8525 16.0425 6 16 C5.54917531 14.53932801 5.08906463 13.08151968 4.625 11.625 C4.36976562 10.81289063 4.11453125 10.00078125 3.8515625 9.1640625 C3.10145717 6.83540815 3.10145717 6.83540815 1 5 Z "
        transform="translate(41,39)" />
    <path
        d="M0 0 C1.0209375 0.86625 1.0209375 0.86625 2.0625 1.75 C2.0625 3.07 2.0625 4.39 2.0625 5.75 C-0.2475 5.75 -2.5575 5.75 -4.9375 5.75 C-6.98745928 9.07925718 -6.97994496 10.94895751 -6.3125 14.75 C-5.5647219 21.3909817 -7.08033097 26.75713289 -9.9375 32.75 C-12.4375 35.8125 -12.4375 35.8125 -14.9375 37.75 C-15.618125 38.3275 -16.29875 38.905 -17 39.5 C-19.02859832 40.80877311 -20.54946256 41.43159501 -22.9375 41.75 C-23.5975 41.42 -24.2575 41.09 -24.9375 40.75 C-25.2675 42.07 -25.5975 43.39 -25.9375 44.75 C-25.2775 45.08 -24.6175 45.41 -23.9375 45.75 C-30.51566964 50.28162797 -35.05043213 51.42673749 -42.9375 50.75 C-47.67579769 49.08282118 -50.1386938 46.89637955 -52.9375 42.75 C-53.87492541 39.93772378 -54.07220844 38.16253156 -54.0625 35.25 C-54.06507812 34.4765625 -54.06765625 33.703125 -54.0703125 32.90625 C-53.9375 30.75 -53.9375 30.75 -52.9375 27.75 C-51.9475 27.75 -50.9575 27.75 -49.9375 27.75 C-49.73125 27.0075 -49.525 26.265 -49.3125 25.5 C-47.53799637 21.95099275 -45.54683912 20.22277631 -41.9375 18.75 C-39.94670788 18.36547714 -37.94475901 18.03639552 -35.9375 17.75 C-30.9338982 17.00872566 -27.70689971 16.33990448 -23.9375 12.75 C-22.94835859 11.10143098 -21.99280748 9.43247097 -21.0625 7.75 C-18.61630322 3.41965687 -16.58086781 1.16424257 -11.953125 -0.69921875 C-7.50212479 -1.91548044 -4.22931124 -1.79970691 0 0 Z M-16.9375 10.75 C-15.9375 12.75 -15.9375 12.75 -15.9375 12.75 Z M-17.9375 13.75 C-19.0203125 15.1421875 -19.0203125 15.1421875 -20.125 16.5625 C-22.7423062 19.71668953 -24.99132352 21.38401583 -28.9375 22.75 C-31.24324063 22.82345722 -33.52272745 22.7493136 -35.828125 22.6796875 C-38.96859364 22.78436979 -40.57107907 23.72163921 -42.9375 25.75 C-46.38088306 29.95857929 -47.73954203 33.30615592 -47.9375 38.75 C-47.1734106 42.11199336 -46.3682444 43.38079051 -43.75 45.625 C-39.92737289 47.15405085 -37.86958147 46.94366759 -33.9375 45.75 C-31.89179578 43.89399767 -30.5419056 42.03506252 -28.9375 39.75 C-29.9275 38.1 -30.9175 36.45 -31.9375 34.75 C-33.5875 35.08 -35.2375 35.41 -36.9375 35.75 C-36.6075 37.07 -36.2775 38.39 -35.9375 39.75 C-35.2775 39.75 -34.6175 39.75 -33.9375 39.75 C-33.9375 40.74 -33.9375 41.73 -33.9375 42.75 C-36.2806213 42.49438677 -38.61593403 42.15729228 -40.9375 41.75 C-42.14022819 39.34454362 -42.03821472 37.80003047 -42 35.125 C-41.99097656 34.30773437 -41.98195313 33.49046875 -41.97265625 32.6484375 C-41.96105469 32.02195312 -41.94945312 31.39546875 -41.9375 30.75 C-38.10480743 28.94637997 -35.16900665 28.30921806 -30.9375 28.75 C-29.27083333 29.75 -27.60416667 30.75 -25.9375 31.75 C-22.17145506 32.29921489 -20.4642825 32.04265694 -17.125 30.1875 C-14.34712119 27.09214932 -14.17314395 24.83449505 -13.9375 20.75 C-15.2575 21.08 -16.5775 21.41 -17.9375 21.75 C-17.6075 21.09 -17.2775 20.43 -16.9375 19.75 C-16.897508 17.75039988 -16.89403201 15.74952758 -16.9375 13.75 C-17.2675 13.75 -17.5975 13.75 -17.9375 13.75 Z M-23.9375 37.75 C-23.6075 38.41 -23.2775 39.07 -22.9375 39.75 C-22.6075 39.09 -22.2775 38.43 -21.9375 37.75 C-22.5975 37.75 -23.2575 37.75 -23.9375 37.75 Z "
        transform="translate(97.9375,59.25)" />
    <path
        d="M0 0 C0.99 0 1.98 0 3 0 C3.30292969 0.66386719 3.60585937 1.32773438 3.91796875 2.01171875 C7.85114509 10.30164426 12.59629413 16.70396628 21.58203125 19.92578125 C22.52433594 20.23902344 23.46664063 20.55226563 24.4375 20.875 C29.9809635 22.78080191 35.2792759 25.55855181 38 31 C38.68585132 37.85851319 38.68585132 37.85851319 36.8828125 40.859375 C35.66339507 42.30614145 34.33792975 43.66207025 33 45 C32.01 44.505 32.01 44.505 31 44 C30.071875 44.474375 29.14375 44.94875 28.1875 45.4375 C25.03918886 46.98078978 23.42264217 47.30199784 20 47 C20 45 20 45 22.5 42.375 C23.325 41.59125 24.15 40.8075 25 40 C24.4328125 40.33515625 23.865625 40.6703125 23.28125 41.015625 C20.67811861 42.13889403 19.28509262 42.11244356 16.5 41.75 C15.7471875 41.66234375 14.994375 41.5746875 14.21875 41.484375 C11.8898416 40.97595134 10.07770284 40.15218067 8 39 C8 38.34 8 37.68 8 37 C11.3 36.34 14.6 35.68 18 35 C16.205625 35.0928125 16.205625 35.0928125 14.375 35.1875 C9.16522008 35.14171986 5.86941492 33.82012 2.07421875 30.125 C-3 24.59318637 -3 24.59318637 -3 21 C-2.175 21.28875 -1.35 21.5775 -0.5 21.875 C3.30795181 23.09898451 7.11270827 24.0616882 11 25 C10.45730469 24.57589844 9.91460937 24.15179688 9.35546875 23.71484375 C4.71128023 19.90744596 1.59496275 16.98111029 0 11 C-0.21429529 7.3171112 -0.17984388 3.68346908 0 0 Z "
        transform="translate(3,64)" />
    <path
        d="M0 0 C2.6210015 0.07708828 4.43319646 0.54299609 6.4921875 2.203125 C13.31372815 9.48414767 17.33753572 20.08846406 17.2265625 30.0390625 C16.8967221 32.89388805 15.69303375 34.72091611 14 37 C13.34 37.99 12.68 38.98 12 40 C7.84267473 40.89085541 4.10442849 40.64649473 0.4375 38.5 C-1.59476385 34.96562809 -1.80600042 31.98115358 -1 28 C0.6875 25.4375 0.6875 25.4375 3 24 C5.75 24.25 5.75 24.25 8 25 C8 25.66 8 26.32 8 27 C6.68 27.33 5.36 27.66 4 28 C4 29.32 4 30.64 4 32 C6.04689196 31.37371577 6.04689196 31.37371577 8 30 C8.70176588 27.58320293 8.70176588 27.58320293 8.75 24.875 C8.80671875 23.96492188 8.8634375 23.05484375 8.921875 22.1171875 C8.94765625 21.41851563 8.9734375 20.71984375 9 20 C6.05908413 20.18415432 6.05908413 20.18415432 3 21 C1.56362302 22.95163118 1.56362302 22.95163118 1 25 C0.34 25 -0.32 25 -1 25 C-1.37392435 20.51290776 -1.15592097 17.89406524 1.0625 13.9375 C2.63839603 11.05856627 3.00623325 10.16206455 2.875 6.75 C2.10404206 4.32698934 1.26893642 2.1994898 0 0 Z "
        transform="translate(46,0)" />
    <path
        d="M0 0 C4.8282775 1.78825093 7.84171181 5.6793016 10.09765625 10.19921875 C11.24973103 13.77513916 11.57544622 17.27585077 11.8125 21 C11.87630859 21.69867188 11.94011719 22.39734375 12.00585938 23.1171875 C12.31130611 27.67737821 11.85770954 30.39887676 9 34 C5.98131566 35.50934217 3.32702771 35.17510672 0 35 C-3 33 -3 33 -3.6875 29.875 C-3.790625 28.92625 -3.89375 27.9775 -4 27 C-4.33 27.66 -4.66 28.32 -5 29 C-5.66 29 -6.32 29 -7 29 C-8.42662219 26.14675563 -8.31033868 24.16545451 -8 21 C-5.96804888 17.79576939 -3.72179247 15.79639344 -0.6875 13.625 C0.199375 12.75875 1.08625 11.8925 2 11 C2.08333333 7.41666667 2.08333333 7.41666667 1 4 C0.7215625 2.7934375 0.7215625 2.7934375 0.4375 1.5625 C0.293125 1.046875 0.14875 0.53125 0 0 Z M0 19 C-0.33 19.99 -0.66 20.98 -1 22 C0.65 22 2.3 22 4 22 C4.33 22.66 4.66 23.32 5 24 C3.68 24.33 2.36 24.66 1 25 C1.33 26.65 1.66 28.3 2 30 C4.666508 27.83411155 4.666508 27.83411155 7 25 C6.86044687 21.65102735 6.86044687 21.65102735 5 19 C3.33382885 18.95936168 1.66611905 18.957279 0 19 Z "
        transform="translate(73,12)" />
    <path
        d="M0 0 C0.66 0 1.32 0 2 0 C2.165 1.19625 2.33 2.3925 2.5 3.625 C3.63700648 8.35695342 6.11490195 10.07181372 10.125 12.578125 C12.2892372 14.21933821 13.0784054 15.46071276 14 18 C13.56521739 23.43478261 13.56521739 23.43478261 11 26 C8 26.3125 8 26.3125 5 26 C4.34 25.01 3.68 24.02 3 23 C4.32 22.67 5.64 22.34 7 22 C6.29660434 19.49034386 6.29660434 19.49034386 5 17 C2.95894361 16.11306697 2.95894361 16.11306697 1 16 C0.26879012 18.63235559 -0.11367678 20.50266407 0.5 23.1875 C2.8025224 25.96971456 5.57208577 26.23824128 9 27 C8.67 28.65 8.34 30.3 8 32 C0.74132492 32.61514196 0.74132492 32.61514196 -2.9375 29.5625 C-3.618125 28.716875 -4.29875 27.87125 -5 27 C-5.33 26.67 -5.66 26.34 -6 26 C-7.66557172 16.70231484 -3.48964491 8.37099344 0 0 Z "
        transform="translate(26,9)" />
    <path
        d="M0 0 C0.66 0 1.32 0 2 0 C2.21914062 0.67546875 2.43828125 1.3509375 2.6640625 2.046875 C4.81375611 8.0939806 6.32756923 10.97470359 12 14 C13.35439668 16.70879335 13.06501451 19.00933268 13 22 C12.071875 21.34 11.14375 20.68 10.1875 20 C7.20363444 17.73425446 7.20363444 17.73425446 4 18 C4 19.65 4 21.3 4 23 C7.28696233 23.79953138 8.71023192 24.09658936 12 23 C12.125 25.375 12.125 25.375 12 28 C11.34 28.66 10.68 29.32 10 30 C5.06101239 29.91903299 2.94120435 29.76097373 -0.9375 26.625 C-4.51299112 22.07437494 -4.5655273 17.57859132 -4 12 C-2.5625 8.8125 -2.5625 8.8125 -1 6 C-0.29241674 2.7633037 -0.29241674 2.7633037 0 0 Z "
        transform="translate(11,28)" />
    <path
        d="M0 0 C2.9375 1.375 2.9375 1.375 5 3 C5 3.66 5 4.32 5 5 C4.07767578 5.09087891 4.07767578 5.09087891 3.13671875 5.18359375 C2.32847656 5.26738281 1.52023438 5.35117188 0.6875 5.4375 C-0.11300781 5.51871094 -0.91351563 5.59992188 -1.73828125 5.68359375 C-4.16087179 5.95265693 -4.16087179 5.95265693 -7 7 C-7 7.66 -7 8.32 -7 9 C-8.32 9 -9.64 9 -11 9 C-11.48192771 3.57831325 -11.48192771 3.57831325 -9.4375 1.125 C-6.07352674 -0.42760304 -3.66991425 -0.38630676 0 0 Z "
        transform="translate(50,61)" />
</svg>